<svg width="64" height="65" viewBox="0 0 64 65" fill="none" xmlns="http://www.w3.org/2000/svg">
<path d="M32 0.143311C14.3265 0.143311 0 14.4698 0 32.1433C0 49.8169 14.3265 64.1433 32 64.1433C49.6735 64.1433 64 49.8169 64 32.1433C64 14.4698 49.6735 0.143311 32 0.143311ZM52.6452 27.9498V28.844C52.6452 29.6014 52.2168 30.2943 51.5394 30.6323L49.5535 31.6259C49.2382 31.7837 48.8867 31.8553 48.5347 31.8333C48.1828 31.8113 47.8429 31.6966 47.5497 31.5007L45.2 29.9343C44.9465 29.7655 44.6579 29.6567 44.356 29.6162C44.0542 29.5757 43.7471 29.6046 43.4581 29.7007L43.1161 29.8143C41.8645 30.2311 41.3535 31.7227 42.0852 32.8207L43.7935 35.3833C44.1639 35.9394 44.7884 36.2736 45.4568 36.2736H46.5161C47.6206 36.2736 48.5161 37.1691 48.5161 38.2736V39.7369C48.5161 40.1691 48.3755 40.5911 48.1161 40.9369L45.6981 44.1601C45.5148 44.4053 45.3897 44.6891 45.3329 44.9898L44.7781 47.9356C44.6981 48.3601 44.4826 48.7472 44.1639 49.0401C42.9411 50.1599 41.8579 51.4232 40.9381 52.8027L39.2568 55.3253C38.9298 55.8158 38.4868 56.218 37.967 56.4962C37.4473 56.7744 36.8669 56.92 36.2774 56.9201C34.9213 56.9201 33.6813 56.1536 33.0748 54.9407C32.3679 53.5269 31.9999 51.9679 32 50.3872V46.5304C32 45.4259 31.1045 44.5304 30 44.5304H26.6606C24.791 44.5304 22.9987 43.7872 21.6761 42.4659C20.3545 41.1437 19.612 39.3508 19.6116 37.4814V35.6672C19.6116 33.4491 20.6568 31.3601 22.431 30.0285L25.9897 27.3588C27.21 26.4437 28.6941 25.9489 30.2194 25.9485H30.3342C31.4284 25.9485 32.5084 26.2027 33.4865 26.693L35.3858 27.6427C35.8606 27.8801 36.409 27.9188 36.9123 27.7511L43.0168 25.7162C43.8335 25.444 44.3845 24.6801 44.3845 23.8194C44.3845 22.7149 43.489 21.8194 42.3845 21.8194H41.0826C40.5523 21.8194 40.0439 21.6091 39.6684 21.2336L38.7755 20.3407C38.5898 20.155 38.3693 20.0076 38.1267 19.9071C37.884 19.8066 37.6239 19.7549 37.3613 19.7549H25.7419C24.6374 19.7549 23.7419 18.8594 23.7419 17.7549V17.1872C23.7419 16.2698 24.3665 15.4698 25.2568 15.2465L27.1213 14.7807C27.6039 14.6594 28.0245 14.364 28.3006 13.9498L29.3432 12.3872C29.7135 11.8311 30.3381 11.4969 31.0065 11.4969H34.1303C35.2348 11.4969 36.1303 10.6014 36.1303 9.49686V6.69686C46.3523 8.35363 54.5626 16.0169 57.0232 25.9498H54.6452C53.5406 25.9498 52.6452 26.8452 52.6452 27.9498Z" fill="#F7FAFC"/>
</svg>
