<svg width="86" height="86" viewBox="0 0 86 86" fill="none" xmlns="http://www.w3.org/2000/svg">
<circle cx="43" cy="43" r="41.5" fill="white" stroke="#CE2179" stroke-width="3"/>
<path fill-rule="evenodd" clip-rule="evenodd" d="M35.4417 24.7765C37.3967 24.6865 38.02 24.6665 43 24.6665C47.98 24.6665 48.6033 24.6882 50.5567 24.7765C52.51 24.8648 53.8433 25.1765 55.01 25.6282C56.2317 26.0898 57.34 26.8115 58.2567 27.7448C59.19 28.6598 59.91 29.7665 60.37 30.9898C60.8233 32.1565 61.1333 33.4898 61.2233 35.4398C61.3133 37.3982 61.3333 38.0215 61.3333 42.9998C61.3333 47.9798 61.3117 48.6032 61.2233 50.5582C61.135 52.5082 60.8233 53.8415 60.37 55.0082C59.91 56.2317 59.1888 57.3402 58.2567 58.2565C57.34 59.1898 56.2317 59.9098 55.01 60.3698C53.8433 60.8232 52.51 61.1332 50.56 61.2232C48.6033 61.3132 47.98 61.3332 43 61.3332C38.02 61.3332 37.3967 61.3115 35.4417 61.2232C33.4917 61.1348 32.1583 60.8232 30.9917 60.3698C29.7682 59.9098 28.6597 59.1886 27.7433 58.2565C26.8106 57.341 26.0888 56.233 25.6283 55.0098C25.1767 53.8432 24.8667 52.5098 24.7767 50.5598C24.6867 48.6015 24.6667 47.9782 24.6667 42.9998C24.6667 38.0198 24.6883 37.3965 24.7767 35.4432C24.865 33.4898 25.1767 32.1565 25.6283 30.9898C26.0895 29.7666 26.8119 28.6587 27.745 27.7432C28.6601 26.8107 29.7674 26.0889 30.99 25.6282C32.1567 25.1765 33.49 24.8665 35.44 24.7765H35.4417ZM50.4083 28.0765C48.475 27.9882 47.895 27.9698 43 27.9698C38.105 27.9698 37.525 27.9882 35.5917 28.0765C33.8033 28.1582 32.8333 28.4565 32.1867 28.7082C31.3317 29.0415 30.72 29.4365 30.0783 30.0782C29.4701 30.6699 29.002 31.3903 28.7083 32.1865C28.4567 32.8332 28.1583 33.8032 28.0767 35.5915C27.9883 37.5248 27.97 38.1048 27.97 42.9998C27.97 47.8948 27.9883 48.4748 28.0767 50.4082C28.1583 52.1965 28.4567 53.1665 28.7083 53.8132C29.0017 54.6082 29.47 55.3298 30.0783 55.9215C30.67 56.5298 31.3917 56.9982 32.1867 57.2915C32.8333 57.5432 33.8033 57.8415 35.5917 57.9232C37.525 58.0115 38.1033 58.0298 43 58.0298C47.8967 58.0298 48.475 58.0115 50.4083 57.9232C52.1967 57.8415 53.1667 57.5432 53.8133 57.2915C54.6683 56.9582 55.28 56.5632 55.9217 55.9215C56.53 55.3298 56.9983 54.6082 57.2917 53.8132C57.5433 53.1665 57.8417 52.1965 57.9233 50.4082C58.0117 48.4748 58.03 47.8948 58.03 42.9998C58.03 38.1048 58.0117 37.5248 57.9233 35.5915C57.8417 33.8032 57.5433 32.8332 57.2917 32.1865C56.9583 31.3315 56.5633 30.7198 55.9217 30.0782C55.3299 29.47 54.6095 29.0019 53.8133 28.7082C53.1667 28.4565 52.1967 28.1582 50.4083 28.0765ZM40.6583 48.6515C41.9661 49.1959 43.4223 49.2694 44.7782 48.8594C46.1341 48.4494 47.3056 47.5814 48.0927 46.4036C48.8797 45.2258 49.2334 43.8113 49.0934 42.4017C48.9534 40.9921 48.3283 39.6748 47.325 38.6748C46.6854 38.0356 45.912 37.5462 45.0605 37.2417C44.2091 36.9373 43.3007 36.8254 42.4008 36.9142C41.5009 37.003 40.6319 37.2901 39.8563 37.7551C39.0807 38.22 38.4179 38.8511 37.9155 39.6029C37.4131 40.3548 37.0836 41.2087 36.9508 42.1031C36.8181 42.9976 36.8852 43.9103 37.1476 44.7757C37.4099 45.6411 37.8608 46.4375 38.4679 47.1077C39.0749 47.7779 39.823 48.3051 40.6583 48.6515ZM36.3367 36.3365C37.2117 35.4615 38.2505 34.7673 39.3938 34.2938C40.5371 33.8202 41.7625 33.5765 43 33.5765C44.2375 33.5765 45.4629 33.8202 46.6062 34.2938C47.7495 34.7673 48.7883 35.4615 49.6633 36.3365C50.5384 37.2115 51.2325 38.2504 51.7061 39.3937C52.1796 40.537 52.4234 41.7623 52.4234 42.9998C52.4234 44.2373 52.1796 45.4627 51.7061 46.606C51.2325 47.7493 50.5384 48.7881 49.6633 49.6632C47.8961 51.4304 45.4992 52.4232 43 52.4232C40.5008 52.4232 38.1039 51.4304 36.3367 49.6632C34.5694 47.8959 33.5766 45.4991 33.5766 42.9998C33.5766 40.5006 34.5694 38.1037 36.3367 36.3365ZM54.5133 34.9798C54.7302 34.7753 54.9038 34.5293 55.0238 34.2565C55.1439 33.9836 55.208 33.6895 55.2123 33.3914C55.2167 33.0933 55.1612 32.7974 55.0491 32.5212C54.9371 32.245 54.7707 31.994 54.5599 31.7832C54.3491 31.5724 54.0982 31.4061 53.822 31.294C53.5457 31.182 53.2498 31.1265 52.9518 31.1308C52.6537 31.1352 52.3595 31.1993 52.0867 31.3193C51.8139 31.4394 51.5679 31.613 51.3633 31.8298C50.9655 32.2516 50.7477 32.8117 50.7562 33.3914C50.7646 33.9711 50.9986 34.5246 51.4086 34.9346C51.8185 35.3445 52.3721 35.5786 52.9518 35.587C53.5315 35.5955 54.0916 35.3777 54.5133 34.9798Z" fill="#333333"/>
</svg>
