<svg width="56" height="56" viewBox="0 0 56 56" fill="none" xmlns="http://www.w3.org/2000/svg">
<circle cx="28" cy="28" r="28" fill="#CE2179"/>
<path fill-rule="evenodd" clip-rule="evenodd" d="M25.0005 24.464H29.3335V26.6223C29.9577 25.381 31.5583 24.2657 33.9628 24.2657C38.5723 24.2657 39.6667 26.7367 39.6667 31.2703V39.6668H35V32.3028C35 29.721 34.3758 28.265 32.7868 28.265C30.583 28.265 29.6672 29.8342 29.6672 32.3017V39.6668H25.0005V24.464ZM16.9983 39.4685H21.665V24.2657H16.9983V39.4685ZM22.3335 19.3085C22.3337 19.6997 22.2561 20.0869 22.1053 20.4478C21.9545 20.8088 21.7334 21.1361 21.455 21.4108C20.8908 21.9716 20.1271 22.2854 19.3317 22.2835C18.5376 22.283 17.7757 21.9699 17.2107 21.412C16.9333 21.1363 16.713 20.8086 16.5624 20.4477C16.4119 20.0867 16.334 19.6996 16.3333 19.3085C16.3333 18.5187 16.6483 17.7627 17.2118 17.205C17.7764 16.6463 18.5386 16.3331 19.3328 16.3335C20.1285 16.3335 20.8915 16.6473 21.455 17.205C22.0173 17.7627 22.3335 18.5187 22.3335 19.3085Z" fill="#F7FAFC"/>
</svg>
