<svg width="72" height="48" viewBox="0 0 72 48" fill="none" xmlns="http://www.w3.org/2000/svg">
<path d="M64 0C68.4125 0 72 3.58125 72 8V40C72 44.4125 68.4125 48 64 48H8C3.58125 48 0 44.4125 0 40V8C0 3.58125 3.58125 0 8 0H64ZM34 16C32.9 16 32 16.9 32 18C32 19.1 32.9 20 34 20H62C63.1 20 64 19.1 64 18C64 16.9 63.1 16 62 16H34ZM34 32H62C63.1 32 64 31.1 64 30C64 28.9 63.1 28 62 28H34C32.9 28 32 28.9 32 30C32 31.1 32.9 32 34 32ZM20.5125 12C20.5125 10.6125 19.3875 9.4875 17.8875 9.4875C16.6125 9.4875 15.4875 10.6125 15.4875 12V12.75C14.7875 12.9 14.0125 13.1125 13.5 13.3875C11.6325 14.2375 10.0088 15.8125 9.61375 18.1C9.3925 19.375 9.51 20.6125 10.04 21.725C10.5588 22.825 11.375 23.6 12.2037 24.1625C13.65 25.15 15.5625 25.725 17.025 26.1625L17.3 26.2375C19.05 26.775 20.225 27.1625 20.9625 27.7C21.275 27.925 21.3875 28.1 21.425 28.2125C21.475 28.3125 21.55 28.5375 21.4625 29.0375C21.3875 29.475 21.15 29.85 20.4625 30.1375C19.7 30.4625 18.4625 30.625 16.8625 30.375C16.1125 30.25 14.775 29.8 13.5875 29.4C13.3125 29.3 13.0375 29.2125 12.7875 29.125C11.48 28.6875 10.0637 29.4 9.6275 30.7125C9.19125 32.025 9.9 33.4375 11.21 33.7625C11.3612 33.925 11.5487 33.9875 11.7638 34.0625C12.6375 34.4 14.3 34.925 15.4875 35.2V36C15.4875 37.3875 16.6125 38.5125 17.8875 38.5125C19.3875 38.5125 20.5125 37.3875 20.5125 36V35.3125C21.175 35.1875 21.825 34.8875 22.425 34.7375C24.4 33.9 25.975 32.275 26.3875 29.9C26.6125 28.6 26.5125 27.35 26.0125 26.2125C25.525 25.0875 24.7375 24.2625 23.9 23.6625C22.3875 22.55 20.3625 21.95 18.85 21.4875L18.6375 21.4625C16.975 20.925 15.775 20.55 15.0125 20.025C14.6875 19.8 14.5875 19.65 14.5625 19.5875C14.5375 19.5375 14.4625 19.3875 14.5375 18.9625C14.5875 18.7125 14.775 18.3 15.5625 17.95C16.2625 17.5875 17.6125 17.3875 19.1375 17.5125C19.6875 17.7125 21.375 18.0375 21.8625 18.1625C23.1875 18.525 24.5625 17.725 24.9125 16.3875C25.275 15.0625 24.475 13.6875 23.1375 13.3375C22.5875 13.1875 21.3375 12.9375 20.5125 12.7875V12Z" fill="#F7FAFC"/>
</svg>
