<svg width="66" height="60" viewBox="0 0 66 60" fill="none" xmlns="http://www.w3.org/2000/svg">
<path d="M27.168 14.124C27.168 11.4966 26.3889 8.92832 24.9293 6.74378C23.4696 4.55923 21.3949 2.85659 18.9676 1.85116C16.5402 0.845722 13.8693 0.582654 11.2924 1.09522C8.71559 1.60779 6.34861 2.87297 4.49081 4.73077C2.633 6.58857 1.36783 8.95555 0.85526 11.5324C0.342694 14.1092 0.605762 16.7802 1.6112 19.2075C2.61663 21.6349 4.31927 23.7096 6.50382 25.1692C8.68836 26.6289 11.2567 27.408 13.884 27.408C17.1989 27.3996 20.3895 26.1455 22.8228 23.8944L29.4 29.9676L29.4432 30L29.4288 30.0108L22.8192 36.1056C20.3878 33.8538 17.198 32.5995 13.884 32.592C11.2567 32.592 8.68836 33.3711 6.50382 34.8307C4.31927 36.2904 2.61663 38.3651 1.6112 40.7924C0.605762 43.2197 0.342694 45.8907 0.85526 48.4676C1.36783 51.0444 2.633 53.4114 4.49081 55.2692C6.34861 57.127 8.71559 58.3922 11.2924 58.9047C13.8693 59.4173 16.5402 59.1542 18.9676 58.1488C21.3949 57.1434 23.4696 55.4407 24.9293 53.2562C26.3889 51.0716 27.168 48.5033 27.168 45.876C27.168 44.8068 27.0096 43.7808 26.7684 42.7872L37.0068 35.6196L51.864 46.6536C59.8272 52.23 65.4 44.2668 65.4 44.2668L26.7684 17.2128C27.006 16.2192 27.168 15.1932 27.168 14.124ZM13.884 20.604C13.033 20.604 12.1904 20.4364 11.4042 20.1107C10.618 19.7851 9.90368 19.3077 9.30196 18.706C8.70024 18.1043 8.22292 17.39 7.89727 16.6038C7.57162 15.8176 7.40401 14.9749 7.40401 14.124C7.40401 13.273 7.57162 12.4304 7.89727 11.6442C8.22292 10.858 8.70024 10.1436 9.30196 9.54192C9.90368 8.9402 10.618 8.46288 11.4042 8.13723C12.1904 7.81158 13.033 7.64397 13.884 7.64397C15.6026 7.64397 17.2508 8.32668 18.4661 9.54192C19.6813 10.7572 20.364 12.4054 20.364 14.124C20.364 15.8426 19.6813 17.4908 18.4661 18.706C17.2508 19.9213 15.6026 20.604 13.884 20.604ZM13.884 52.356C12.1654 52.356 10.5172 51.6733 9.30196 50.458C8.08672 49.2428 7.40401 47.5946 7.40401 45.876C7.40401 44.1574 8.08672 42.5092 9.30196 41.2939C10.5172 40.0787 12.1654 39.396 13.884 39.396C15.6026 39.396 17.2508 40.0787 18.4661 41.2939C19.6813 42.5092 20.364 44.1574 20.364 45.876C20.364 47.5946 19.6813 49.2428 18.4661 50.458C17.2508 51.6733 15.6026 52.356 13.884 52.356ZM65.4 15.7368C65.4 15.7368 59.8272 7.77357 51.864 13.35L40.326 21.396L48.8004 27.3288L65.4 15.7368Z" fill="#F7FAFC"/>
</svg>
