<svg width="86" height="86" viewBox="0 0 86 86" fill="none" xmlns="http://www.w3.org/2000/svg">
<circle cx="43" cy="43" r="41.5" fill="white" stroke="#CE2179" stroke-width="3"/>
<path d="M62.405 31.2283C61.0133 31.845 59.5183 32.2616 57.9467 32.45C59.5683 31.4796 60.7816 29.9524 61.36 28.1533C59.8364 29.0583 58.1689 29.6953 56.43 30.0366C55.2606 28.7881 53.7118 27.9605 52.0239 27.6824C50.336 27.4043 48.6035 27.6913 47.0954 28.4987C45.5873 29.3062 44.388 30.5889 43.6836 32.1478C42.9792 33.7067 42.8092 35.4545 43.2 37.12C40.1128 36.965 37.0927 36.1625 34.3357 34.7648C31.5787 33.3671 29.1464 31.4052 27.1967 29.0066C26.53 30.1566 26.1467 31.49 26.1467 32.91C26.1459 34.1883 26.4607 35.447 27.0631 36.5745C27.6655 37.702 28.5369 38.6634 29.6 39.3733C28.3671 39.3341 27.1615 39.0009 26.0833 38.4016V38.5016C26.0832 40.2945 26.7034 42.0323 27.8386 43.42C28.9739 44.8077 30.5543 45.7598 32.3117 46.115C31.168 46.4245 29.9689 46.4701 28.805 46.2483C29.3008 47.791 30.2667 49.14 31.5673 50.1065C32.8679 51.073 34.4382 51.6086 36.0583 51.6383C33.3081 53.7973 29.9115 54.9684 26.415 54.9633C25.7956 54.9635 25.1768 54.9273 24.5617 54.855C28.1108 57.1369 32.2422 58.348 36.4617 58.3433C50.745 58.3433 58.5533 46.5133 58.5533 36.2533C58.5533 35.92 58.545 35.5833 58.53 35.25C60.0488 34.1516 61.3599 32.7915 62.4017 31.2333L62.405 31.2283Z" fill="#333333"/>
</svg>
